<?xml version="1.0" encoding="UTF-8"?><svg id="Calque_2" xmlns="http://www.w3.org/2000/svg" viewBox="0 0 498.75 499.24"><g id="Calque_1-2"><path d="M224,382.81c7.73,.92,15.5,1.45,23.27,1.57v43.57c-6.73-.09-13.44-.53-20.12-1.31-.06-.88-1.01-21.09-3.15-43.84h0Zm27.65,45.24h0c6.73-.02,13.45-.46,20.12-1.32,.29-6.12,1.43-24.18,3.06-43.66h0c-7.68,1.03-15.43,1.49-23.19,1.4v43.58Zm246.75-165.46v.61h0c-2.71,55.13-23.74,107.79-59.75,149.62-36.01,41.84-84.94,70.48-139.05,81.38-46.82,9.51-95.38,5.5-140-11.55-38.83-14.78-73.31-39.09-100.28-70.7C27.1,373.56,6.97,326.49,1.49,276.67c-.48-1.67-1.09-13.21-1.14-14.09-2.4-45.21,7.55-90.21,28.79-130.19,21.23-39.98,52.95-73.42,91.75-96.75C159.69,12.32,204.1,0,249.37,0s89.68,12.32,128.48,35.65c38.8,23.32,70.52,56.77,91.75,96.75,21.23,39.98,31.19,84.98,28.79,130.19h0ZM208.25,486.94c-.47-27.74-7.08-80.45-10.68-107.98-2.62-20.21-4.73-34.74-5.51-40.07l-29.31,5.77c-7.13,1.43-13.99,4-20.3,7.61-14.47,8.31-25.4,21.63-30.71,37.45l-15.31,45.94c17.65,14.51,37.27,26.44,58.27,35.44,.26-13.56-.18-40.16-.18-40.51,0-1.17,.93-2.13,2.1-2.19,.6-.03,1.18,.19,1.61,.61s.67,.98,.67,1.58c0,1.31,.52,29.49,.09,42.35h0c15.84,6.5,32.37,11.19,49.26,14h0Zm-14.96-275.62c-3.05-3.37-7.57-5.01-12.08-4.38-3.97,1.41-7.25,4.3-9.14,8.06-1.89,3.77-2.25,8.12-1.01,12.15,.39,4.21,2.4,8.11,5.59,10.88s7.33,4.2,11.55,4c3.79-.77,6.98-3.31,8.58-6.82,11.08,48.85,42.12,62.49,68.16,52.68h0c5.84-2.37,11.16-5.84,15.66-10.24v.18c11.05-11.87,18.46-26.66,21.35-42.61,1.6,3.52,4.79,6.05,8.58,6.82,4.22,.2,8.36-1.23,11.55-4s5.2-6.66,5.59-10.88c1.24-4.03,.88-8.38-1.01-12.15-1.89-3.77-5.16-6.66-9.14-8.06-4.5-.63-9.02,1.01-12.08,4.38,.18-3.15,.35-6.12,.26-9.1,2.19-.09,4.46-.35,6.74-.61,1.14-.14,1.98-1.12,1.93-2.27-.05-1.14-.96-2.06-2.11-2.11h-.35c-2.19,.26-4.29,.52-6.39,.61-52.5,4.11-75.16-26.16-75.43-26.51l-2.1-2.8-1.57,3.15c-11.81,22.93-25.73,26.86-33.25,27.04-5.15,.14-5.41-1.04-6.91-.44h0c-.83,.37-1.35,1.21-1.31,2.12,.04,.91,.63,1.7,1.48,2,1.96,.55,4,.81,6.04,.79h.52c0,2.71,.09,5.34,.27,8.14h0Zm55.12-61.16c-.61-1.03-1.91-1.41-2.98-.88-.51,.28-.89,.75-1.05,1.3-.16,.56-.1,1.16,.18,1.67,11.27,18.38,28.32,32.51,48.48,40.16,.25,.07,.52,.1,.79,.09,1.05-.01,1.94-.77,2.12-1.81,.17-1.04-.43-2.04-1.42-2.39-19.09-7.39-35.27-20.77-46.11-38.15h0Zm55.39,36.14c.18,.15,.39,.27,.61,.35,.05,0,.09,.04,.09,.09,.26,0,.52,.09,.79,.09h0c.62,0,1.22-.26,1.66-.7,.79-.93,.71-2.31-.18-3.15-1.4-1.23-2.71-2.45-3.94-3.68l-.09-.09c-8.7-7.41-14.98-17.25-18.02-28.26-.05-.28-.14-.54-.27-.79l-.18-.18h0c-.1-.18-.25-.34-.44-.44-.15-.2-.37-.32-.61-.35-.7-.28-1.5-.16-2.1,.3-.6,.47-.9,1.22-.79,1.97,.09,.61,2.19,15.75,23.45,34.82h0Zm-13.04,241.41c.26-1.57,.44-3.15,.61-4.73-5,1.37-10.09,2.42-15.23,3.15,.39-5.25,1.34-24.27,3.24-43.66,5.88-.86,11.7-2.12,17.41-3.76,0-.35,.09-.61,.09-.88,2.62-20.12,4.99-34.48,5.86-39.73l-14.44-2.89c-.88-.25-1.55-.95-1.75-1.84l-6.65-39.81c-32.11,33.07-55.12,17.59-62.82,10.41l-4.9,29.4h0c-.2,.89-.88,1.59-1.75,1.84l-14,2.8c.12,.88,5.6,40.3,5.6,41.21,5.25,1.06,8.64,1.75,17.5,2.98,.68,7.09,2.25,26.25,3.06,42.44,.07,.49,.1,.99,.09,1.49-10.34-1.59-11.43-1.95-15.23-2.71,.18,1.49,.35,3.06,.52,4.64h0c27.29,5.91,55.54,5.79,82.77-.35h0Zm111.56,7.96l-15.31-45.94c-5.66-16.88-17.72-30.87-33.6-38.94-5.49-2.84-11.35-4.9-17.41-6.12l-28.96-5.77c-.88,5.16-3.24,19.43-5.77,39.46-3.5,26.25-10.31,82.04-10.76,108.59h0c16.87-2.79,33.36-7.49,49.18-14-1.59-14.18-2.24-28.44-1.93-42.7,0-.58,.22-1.14,.64-1.55,.41-.41,.97-.64,1.55-.64,1.23,.03,2.21,1.05,2.19,2.28-.29,13.67,.26,27.35,1.66,40.95,21.09-9.05,40.8-21.04,58.54-35.61h0ZM249.37,9.27c-49.18-.04-97.18,15-137.55,43.08-40.37,28.09-71.15,67.87-88.21,113.99-17.06,46.12-19.57,96.36-7.19,143.95,12.38,47.59,39.05,90.25,76.41,122.21l14.7-44.19h0c6.13-18.23,19.26-33.28,36.48-41.82,7.7-29.75,13.56-58.71,12.69-68.86-12.77-146.3,34.12-161.88,74.9-159.86,59.15-21.09,122.41,6.3,110.86,166.16h0c.04,20.77,3.19,41.41,9.36,61.25,18.58,8.24,32.86,23.88,39.38,43.14l14.7,44.19h0c37.34-31.98,63.98-74.63,76.34-122.22,12.36-47.58,9.84-97.81-7.21-143.92-17.05-46.11-47.82-85.88-88.17-113.97-40.35-28.09-88.33-43.14-137.49-43.13h0Z"/></g></svg>